# xmcd
#
# Track frame offsets: 
#        150
#        22028
#        47233
#        65743
#        89289
#        112268
#        133317
#        149462
#        165822
#        181854
#        197391
#        214829
#        236436
#        257361
#        275365
#        295117
#        314212
#
# Disc length: 4444 seconds
#
# Revision: 0
# Processed by: cddbd v1.5.2PL0 Copyright (c) Steve Scherf et al.
# Submitted via: ExactAudioCopyFreeDBPlugin 1.0
#
DISCID=02115a11
DTITLE=Various Artist - The Power of Love Volume II
DYEAR=1996
DGENRE=Easy Listening
TTITLE0=Toni Braxton - You mean the world to me
TTITLE1=Sade - Cherish the day
TTITLE2=K.D. Lang - Hush sweet lover
TTITLE3=Sinead O'Connor - Nothing compares 2 U
TTITLE4=George Michael - Careless Whispers
TTITLE5=Bette Midler - From a distance
TTITLE6=Richard Marx - Now and forever
TTITLE7=The Righteous Brothers - Unchained Melody
TTITLE8=Aretha Franklin - I say a little prayer
TTITLE9=Randy Crawford - You bring the sunshine out
TTITLE10=Margaret Urlich - All by myself
TTITLE11=Chaka Khan - Through the fire
TTITLE12=Taylor Dayne - Love will lead you back
TTITLE13=Everything but the Girl - Driving
TTITLE14=Peter Cetera - Glory of love
TTITLE15=1927 - That's when I think of you
TTITLE16=Marvin Gaye - Sexual healing
EXTD=
EXTT0=
EXTT1=
EXTT2=
EXTT3=
EXTT4=
EXTT5=
EXTT6=
EXTT7=
EXTT8=
EXTT9=
EXTT10=
EXTT11=
EXTT12=
EXTT13=
EXTT14=
EXTT15=
EXTT16=
PLAYORDER=
